<?xml version="1.0" encoding="UTF-8"?>
<svg version="1.1" xmlns="http://www.w3.org/2000/svg" width="1080" height="1080">
<path d="M0 0 C1.07886475 -0.00999023 2.15772949 -0.01998047 3.26928711 -0.03027344 C12.12905954 0.06662275 18.90139691 0.86918524 25.40625 7.24609375 C26.84462584 8.77854093 28.27128473 10.32205 29.6875 11.875 C37.79660926 20.36726361 46.25577251 27.20587934 56.1875 33.4375 C57.71503906 34.40623047 57.71503906 34.40623047 59.2734375 35.39453125 C64.71640045 38.59948508 69.93923387 40.3742545 76.09375 41.73046875 C79.31012143 42.46552333 82.41545644 43.38582005 85.5625 44.375 C86.64015625 44.70757812 87.7178125 45.04015625 88.828125 45.3828125 C91.13659555 46.10756488 93.43846742 46.85357066 95.734375 47.6171875 C105.07231245 50.57352141 112.13953506 52.0687614 121.1328125 47.55078125 C125.90668361 44.99722781 130.54324935 42.21750919 135.1875 39.4375 C195.65616415 3.72290497 195.65616415 3.72290497 224.43359375 10.1640625 C257.25124973 19.49717622 283.14642646 52.86668367 299.30859375 81.41796875 C312.83111034 106.29747436 312.83111034 106.29747436 311.1875 117.4375 C310.02346663 121.17939269 308.67926307 124.81464684 307.1875 128.4375 C303.5217449 128.4375 301.24898438 128.41246028 298.48925781 125.87768555 C297.94108398 125.2206665 297.39291016 124.56364746 296.828125 123.88671875 C296.22218506 123.16274902 295.61624512 122.4387793 294.99194336 121.69287109 C292.25111954 118.26711944 289.61601154 114.77145949 287 111.25 C279.16044632 100.86521063 270.78683478 91.24936053 260.734375 82.92578125 C259.96867188 82.18908203 259.96867188 82.18908203 259.1875 81.4375 C259.1875 80.7775 259.1875 80.1175 259.1875 79.4375 C258.62933594 79.17453125 258.07117188 78.9115625 257.49609375 78.640625 C254.95125324 77.31437986 252.63654372 75.78092167 250.25 74.1875 C227.98253736 60.00120923 202.33431693 56.11847823 176.6328125 61.5703125 C172.38341726 62.63988817 168.3140207 63.96873839 164.1875 65.4375 C163.1975 65.4375 162.2075 65.4375 161.1875 65.4375 C161.5484375 66.02015625 161.909375 66.6028125 162.28125 67.203125 C165.06518234 72.12140546 166.48549037 75.67593426 166.1875 81.375 C165.88968448 87.18984805 167.44087555 90.65001832 170.07421875 95.74609375 C171.81987684 99.96629875 171.62510398 103.95449032 171.1875 108.4375 C166.72821012 108.69937105 165.26222172 107.86059621 161.90625 104.8984375 C158.58349694 102.0740974 155.41668776 99.67414456 151.1875 98.4375 C143.75581876 99.231635 138.86135123 104.33066344 133.6875 109.25390625 C120.71681504 120.5829889 101.16958854 121.79933291 84.8125 121.6875 C83.77571609 121.68583832 83.77571609 121.68583832 82.71798706 121.68414307 C73.55713564 121.66740527 64.42548389 121.39343667 55.27734375 120.9140625 C53.87216492 120.84061615 53.87216492 120.84061615 52.43859863 120.76568604 C51.0175885 120.69121246 51.0175885 120.69121246 49.56787109 120.61523438 C21.62207715 119.15360104 -5.9696434 119.67764111 -33.8125 122.625 C-41.73234591 123.45767759 -49.54037701 123.53926191 -57.5 123.3125 C-58.56412109 123.29082764 -59.62824219 123.26915527 -60.72460938 123.24682617 C-68.03547424 122.94105512 -74.09327368 121.312062 -80.8125 118.4375 C-80.8125 116.4575 -80.8125 114.4775 -80.8125 112.4375 C-75.72023002 110.17948029 -70.59800835 108.25408156 -65.3125 106.5 C-64.61125 106.26087891 -63.91 106.02175781 -63.1875 105.77539062 C-56.4733571 103.53537288 -49.64306153 101.75005813 -42.79876709 99.95907593 C-39.55161054 99.10640173 -36.3093271 98.23583434 -33.06640625 97.3671875 C-30.50260417 96.68229167 -27.93880208 95.99739583 -25.375 95.3125 C-24.72635986 95.13895996 -24.07771973 94.96541992 -23.40942383 94.78662109 C-21.48274503 94.27120994 -19.5558278 93.75669034 -17.62890625 93.2421875 C-16.44385498 92.92491699 -15.25880371 92.60764648 -14.0378418 92.28076172 C-11.36314392 91.58146519 -8.68538682 90.93481851 -5.9921875 90.3125 C-2.76726352 89.76922734 -2.76726352 89.76922734 -1.375 87.5625 C-1.189375 86.86125 -1.00375 86.16 -0.8125 85.4375 C-0.544375 84.798125 -0.27625 84.15875 0 83.5 C0.29644987 80.23905144 -0.79689088 79.0028207 -2.8125 76.4375 C-5.36169533 74.25719471 -8.02713785 72.30461089 -10.8125 70.4375 C-11.534375 69.94894531 -12.25625 69.46039063 -13 68.95703125 C-42.52577631 53.00491044 -77.48521451 64.86732763 -107.625 73.0625 C-108.29420471 73.24400604 -108.96340942 73.42551208 -109.65289307 73.61251831 C-126.0945842 78.10526394 -126.0945842 78.10526394 -141.6875 84.875 C-145.76258435 87.0086214 -149.93496316 88.6753606 -154.25 90.25 C-171.9088712 96.71205438 -189.49789414 104.00198954 -205.74194336 113.52075195 C-209.49057012 115.71229788 -213.28766134 117.71667242 -217.1875 119.625 C-221.94811786 121.97090236 -226.39432273 124.50436225 -230.8125 127.4375 C-232.02863361 128.23569571 -233.24478079 129.03387074 -234.4609375 129.83203125 C-235.80776395 130.72063876 -237.15411305 131.60997016 -238.5 132.5 C-239.14235596 132.9237793 -239.78471191 133.34755859 -240.4465332 133.78417969 C-243.21718918 135.63008285 -245.85118786 137.46957554 -248.41796875 139.59765625 C-251.0139233 141.59226407 -253.37017963 142.68866086 -256.4375 143.8125 C-257.37851562 144.17085937 -258.31953125 144.52921875 -259.2890625 144.8984375 C-260.53816406 145.16527344 -260.53816406 145.16527344 -261.8125 145.4375 C-262.8025 144.7775 -263.7925 144.1175 -264.8125 143.4375 C-264.39595541 138.46673461 -261.81053481 135.5884483 -258.625 132 C-258.15513672 131.45279297 -257.68527344 130.90558594 -257.20117188 130.34179688 C-253.8998065 126.53599368 -250.48834956 122.88458381 -246.8125 119.4375 C-246.1525 119.4375 -245.4925 119.4375 -244.8125 119.4375 C-244.3175 117.9525 -244.3175 117.9525 -243.8125 116.4375 C-242.52734375 115.0703125 -242.52734375 115.0703125 -240.75 113.5625 C-240.03972656 112.95921875 -239.32945312 112.3559375 -238.59765625 111.734375 C-232.98470681 107.10546298 -227.33731317 102.51932395 -221.67089844 97.95605469 C-219.90318333 96.51160015 -218.17451274 95.0291738 -216.4453125 93.5390625 C-213.8125 91.4375 -213.8125 91.4375 -211.8125 91.4375 C-211.8125 90.7775 -211.8125 90.1175 -211.8125 89.4375 C-210.47753906 88.20751953 -210.47753906 88.20751953 -208.578125 86.8203125 C-207.86946289 86.30210937 -207.16080078 85.78390625 -206.43066406 85.25 C-205.64916992 84.693125 -204.86767578 84.13625 -204.0625 83.5625 C-202.84771973 82.69238281 -202.84771973 82.69238281 -201.60839844 81.8046875 C-193.48026692 76.0679165 -185.02412473 70.97047626 -176.43066406 65.96875 C-173.75301126 64.40270763 -171.09003225 62.81399817 -168.4296875 61.21875 C-139.90054297 44.14300456 -111.27455053 30.61427195 -80.26513672 18.76318359 C-76.96492832 17.49602679 -73.67147546 16.21263171 -70.37890625 14.92578125 C-59.72064353 10.79267653 -49.26143519 7.0394794 -38.02197266 4.87451172 C-35.60223811 4.39591229 -33.19974537 3.85625677 -30.79296875 3.31640625 C-20.50760385 1.1138078 -10.52591127 0.05672334 0 0 Z M-54.8125 25.4375 C-55.57498047 25.71577637 -56.33746094 25.99405273 -57.12304688 26.28076172 C-63.38546509 28.58370748 -69.603273 30.99528085 -75.8125 33.4375 C-76.81555176 33.83130859 -77.81860352 34.22511719 -78.85205078 34.63085938 C-86.19116797 37.52011283 -93.50954293 40.45806196 -100.8125 43.4375 C-101.77849121 43.83114746 -102.74448242 44.22479492 -103.73974609 44.63037109 C-114.9344714 49.22204051 -125.4508324 54.18819688 -135.8125 60.4375 C-137.57061249 61.44616386 -139.3355013 62.4421532 -141.10131836 63.43725586 C-148.45691856 67.58534863 -155.65078506 71.9644023 -162.8125 76.4375 C-160.74260811 77.76192859 -160.74260811 77.76192859 -158.08984375 76.58203125 C-156.98769531 76.14246094 -155.88554687 75.70289063 -154.75 75.25 C-153.66589844 74.82332031 -152.58179688 74.39664063 -151.46484375 73.95703125 C-148.79525079 72.84636637 -146.17184117 71.69511605 -143.54296875 70.49609375 C-117.41434447 58.83167682 -87.79064575 52.77625016 -59.8125 47.4375 C-58.81089844 47.23640625 -57.80929687 47.0353125 -56.77734375 46.828125 C-35.48555475 44.02288271 -15.54487995 48.49326546 2.625 59.875 C3.20459473 60.23424561 3.78418945 60.59349121 4.38134766 60.96362305 C10.45093312 64.92608168 14.74378143 69.80068165 16.8046875 76.8125 C17.8510248 83.98738434 16.5716585 91.19584859 12.25 97.0625 C10.33795391 99.3021857 8.271139 101.35857102 6.1875 103.4375 C7.46258423 103.47508423 7.46258423 103.47508423 8.76342773 103.51342773 C12.71736478 103.63142775 16.67121332 103.75208001 20.625 103.875 C21.33523315 103.89706512 22.04546631 103.91913025 22.77722168 103.94186401 C30.83696869 104.19531733 38.89014945 104.47143996 46.9375 105 C52.11681855 105.33868783 57.22637532 105.46856456 62.4140625 105.40625 C65.68851481 105.44314524 68.92248873 105.6868808 72.1875 105.9375 C95.48740744 107.54929421 113.51987718 105.99898481 132.49072266 91.39013672 C137.35222071 87.76039956 141.92662235 85.75100296 147.89453125 84.4140625 C150.39965149 83.61143075 150.39965149 83.61143075 151.625 81.0546875 C152.53070275 78.19144161 152.53070275 78.19144161 150.375 74.9375 C146.18105348 69.71786004 140.92592501 66.96532078 134.41796875 65.7109375 C129.3010681 65.17457976 124.68742439 66.28849655 119.71875 67.41015625 C108.73910433 69.65875527 98.53580458 66.45198311 87.9375 63.625 C86.60824377 63.27734088 85.27881716 62.93033253 83.94921875 62.58398438 C80.66546125 61.72533365 77.38795886 60.84520628 74.11245728 59.95562744 C72.20771016 59.44293983 70.2985562 58.94671702 68.3894043 58.45068359 C61.50156155 56.60167883 55.52660623 54.50801125 49.5 50.6875 C48.43519409 50.036604 48.43519409 50.036604 47.34887695 49.37255859 C33.39639909 40.73312609 33.39639909 40.73312609 28.01953125 35.2109375 C26.37296356 33.20565883 26.37296356 33.20565883 24.1875 33.4375 C23.8575 32.4475 23.5275 31.4575 23.1875 30.4375 C21.52959408 28.75699757 21.52959408 28.75699757 19.5 27.125 C16.82684286 24.86862542 14.29624901 22.5871692 11.875 20.0625 C6.84773283 15.15214602 0.84008194 16.13405442 -5.7956543 16.1184082 C-22.53017811 16.33563048 -39.12858895 19.66525795 -54.8125 25.4375 Z M144.1875 53.4375 C144.1875 54.0975 144.1875 54.7575 144.1875 55.4375 C148.98927764 54.73387318 153.17142291 52.8940271 157.625 51.0625 C169.60192642 46.29014988 181.29929418 43.98068109 194.1875 43.4375 C195.46947266 43.35822266 195.46947266 43.35822266 196.77734375 43.27734375 C222.3006747 42.37281892 246.43947954 52.37104545 267.1875 66.4375 C265.91857226 62.83363617 264.52320819 60.36519204 261.9140625 57.58203125 C261.26018555 56.88190918 260.60630859 56.18178711 259.93261719 55.46044922 C259.23297852 54.73100098 258.53333984 54.00155273 257.8125 53.25 C257.09223633 52.49477051 256.37197266 51.73954102 255.62988281 50.96142578 C238.79251076 33.41559963 238.79251076 33.41559963 216.5 26.125 C190.73115055 26.46630926 165.80581894 40.92634581 144.1875 53.4375 Z " fill="#FFFFFF" transform="translate(516.8125,412.5625)"/>
<path d="M0 0 C1.33285034 0.01244751 1.33285034 0.01244751 2.69262695 0.02514648 C14.7734639 0.33684561 22.58032637 5.03924886 31.1640625 13.3515625 C39.18183416 21.915225 41.35089741 30.8423824 41.30102539 42.2668457 C41.30117142 43.14539719 41.30131744 44.02394867 41.3014679 44.92912292 C41.30077299 47.82386776 41.29300036 50.7185477 41.28515625 53.61328125 C41.28329057 55.62395696 41.28186737 57.63463312 41.28086853 59.64530945 C41.27705517 64.93068706 41.26723495 70.21603708 41.25616455 75.50140381 C41.24592505 80.89741645 41.24136547 86.29343356 41.23632812 91.68945312 C41.22561163 102.27214947 41.20802437 112.85481812 41.1875 123.4375 C33.5975 123.4375 26.0075 123.4375 18.1875 123.4375 C18.1875 110.5675 18.1875 97.6975 18.1875 84.4375 C6.9675 84.4375 -4.2525 84.4375 -15.8125 84.4375 C-15.8125 97.3075 -15.8125 110.1775 -15.8125 123.4375 C-23.4025 123.4375 -30.9925 123.4375 -38.8125 123.4375 C-38.88042532 111.74528754 -38.93540233 100.05320732 -38.96793652 88.36084175 C-38.9835556 82.93091595 -39.00472506 77.50113279 -39.03881836 72.07128906 C-39.071546 66.82579023 -39.08938124 61.58042815 -39.09713173 56.33483505 C-39.10265123 54.33907801 -39.11342922 52.34332798 -39.12969017 50.34762955 C-39.15164278 47.54034828 -39.15445952 44.73362357 -39.15307617 41.92626953 C-39.163862 41.11130508 -39.17464783 40.29634064 -39.1857605 39.4566803 C-39.12469771 27.91581418 -35.0213635 20.19466492 -27.4375 11.8125 C-18.84338655 4.03687354 -11.72518461 -0.14020322 0 0 Z M-12.1875 27.75 C-16.11377643 32.25367002 -15.9397244 37.7559662 -15.91015625 43.4921875 C-15.90765869 44.49233887 -15.90516113 45.49249023 -15.90258789 46.52294922 C-15.89348389 47.77350098 -15.88437988 49.02405273 -15.875 50.3125 C-15.854375 54.31375 -15.83375 58.315 -15.8125 62.4375 C-4.5925 62.4375 6.6275 62.4375 18.1875 62.4375 C18.27 57.796875 18.3525 53.15625 18.4375 48.375 C18.49212402 46.19958618 18.49212402 46.19958618 18.54785156 43.98022461 C18.63988065 34.48789722 18.63988065 34.48789722 14.1875 26.4375 C5.51684079 19.97700882 -4.42661133 19.43607889 -12.1875 27.75 Z " fill="#FFFFFF" transform="translate(402.8125,544.5625)"/>
<path d="M0 0 C4.45332893 2.25836075 8.41686582 5.11497253 12.1875 8.375 C12.80625 8.89964844 13.425 9.42429687 14.0625 9.96484375 C19.64473474 15.07788204 22.80930754 21.24042262 25.1875 28.375 C25.27919534 31.34223606 25.31344642 34.28557276 25.30102539 37.25268555 C25.30117142 38.16020569 25.30131744 39.06772583 25.3014679 40.00274658 C25.30077061 43.00576152 25.29298676 46.00871463 25.28515625 49.01171875 C25.28329142 51.09251369 25.28186782 53.17330908 25.28086853 55.25410461 C25.27704849 60.7335023 25.26722255 66.21287352 25.25616455 71.69226074 C25.24593943 77.28246706 25.24136855 82.87267765 25.23632812 88.46289062 C25.22559985 99.43360725 25.20800717 110.40429729 25.1875 121.375 C17.2675 121.375 9.3475 121.375 1.1875 121.375 C1.1781543 118.7155835 1.16880859 116.05616699 1.15917969 113.31616211 C1.12537801 104.51903709 1.06981121 95.72214587 1.00359726 86.92520809 C0.96412658 81.5927859 0.93193599 76.26052875 0.91650391 70.92797852 C0.90133479 65.77954681 0.86688429 60.63156885 0.81919098 55.48333931 C0.80437989 53.52144889 0.79645914 51.55949368 0.79561615 49.59754753 C0.79324394 46.84440898 0.76614398 44.09252176 0.73339844 41.33959961 C0.7384288 40.53255081 0.74345917 39.72550201 0.74864197 38.89399719 C0.64584771 33.28998005 -0.634536 30.0106604 -3.8125 25.375 C-7.28200134 22.46674152 -11.37643563 21.14714183 -15.875 20.9375 C-21.68329068 21.58286563 -25.33422726 22.99527878 -29.625 27 C-34.05197636 32.86898735 -34.11052188 40.84389006 -34.13134766 47.92407227 C-34.14139328 48.72517929 -34.1514389 49.52628632 -34.16178894 50.35166931 C-34.1923547 52.96490852 -34.20958107 55.5780466 -34.2265625 58.19140625 C-34.24529563 60.01701207 -34.26487061 61.84260942 -34.2852478 63.66819763 C-34.33634855 68.44710273 -34.37609166 73.22603583 -34.41339111 78.00506592 C-34.45356981 82.89211834 -34.50459858 87.7790565 -34.5546875 92.66601562 C-34.65118535 102.23560438 -34.73466879 111.8052412 -34.8125 121.375 C-42.4025 121.375 -49.9925 121.375 -57.8125 121.375 C-57.88050084 110.10848056 -57.93544547 98.84209929 -57.96793652 87.57542038 C-57.98353708 82.3428454 -58.00467203 77.11041912 -58.03881836 71.87792969 C-58.07161293 66.82045293 -58.08939511 61.76311847 -58.09713173 56.70554352 C-58.10263937 54.78400689 -58.11339363 52.86247731 -58.12969017 50.94100189 C-58.24528607 36.73578931 -58.20200427 23.90050525 -48.8125 12.375 C-48.30976562 11.74851562 -47.80703125 11.12203125 -47.2890625 10.4765625 C-36.26386246 -1.83939267 -15.39143743 -5.83228997 0 0 Z " fill="#FFFFFF" transform="translate(613.8125,546.625)"/>
<path d="M0 0 C0.92586914 0.00572021 1.85173828 0.01144043 2.80566406 0.01733398 C14.37203493 0.31814065 23.39807163 4.50074423 31.75 12.5 C40.51442906 21.98198466 42.92039468 31.58459352 42.86352539 44.25927734 C42.86367142 45.11846771 42.86381744 45.97765808 42.8639679 46.86288452 C42.86327429 49.68726169 42.8555078 52.51157193 42.84765625 55.3359375 C42.84579011 57.30034346 42.84436713 59.2647499 42.84336853 61.22915649 C42.83955879 66.38793228 42.82974171 71.54667971 42.81866455 76.70544434 C42.80841721 81.97419857 42.8038638 87.24295741 42.79882812 92.51171875 C42.78811803 102.84116027 42.77053376 113.17057333 42.75 123.5 C34.83 123.5 26.91 123.5 18.75 123.5 C18.7406543 120.90640625 18.73130859 118.3128125 18.72167969 115.640625 C18.68785699 107.05504752 18.63227854 98.46970907 18.56609726 89.88432312 C18.52664994 84.68084483 18.49444792 79.47753507 18.47900391 74.27392578 C18.46381936 69.248678 18.4293416 64.22389365 18.38169098 59.19885254 C18.36689577 57.285238 18.35896006 55.37155729 18.35811615 53.45788574 C18.35573913 50.76960297 18.32860101 48.08259331 18.29589844 45.39453125 C18.3009288 44.60977921 18.30595917 43.82502716 18.31114197 43.01649475 C18.1837724 36.21418534 16.16202376 30.85172316 11.25 26.0625 C6.69396569 23.21497856 2.07599166 22.81495397 -3.25 23.5 C-9.06436428 25.34332201 -12.38645929 28.00200184 -15.25 33.5 C-16.47802682 37.58121125 -16.42450394 41.61964648 -16.45532227 45.84863281 C-16.47017166 47.10771957 -16.47017166 47.10771957 -16.48532104 48.39224243 C-16.51686998 51.16250808 -16.54166735 53.93279086 -16.56640625 56.703125 C-16.58698148 58.62555381 -16.6079781 60.54797816 -16.62937927 62.47039795 C-16.68454116 67.52722555 -16.73397639 72.58409357 -16.78222656 77.64099121 C-16.83248454 82.80236403 -16.88814818 87.96367821 -16.94335938 93.125 C-17.05086901 103.24995175 -17.15183036 113.37495338 -17.25 123.5 C-24.84 123.5 -32.43 123.5 -40.25 123.5 C-40.34060375 111.69467967 -40.41389037 99.88959275 -40.45724869 88.08400249 C-40.47806533 82.6013611 -40.50627437 77.11897126 -40.55175781 71.63647461 C-40.59542726 66.33908958 -40.61918159 61.04194554 -40.62950897 55.7443943 C-40.63686259 53.72990949 -40.65122197 51.7154369 -40.67292023 49.70105553 C-40.82103711 35.37210967 -40.23258874 24.14437419 -30.5234375 12.79296875 C-21.68102056 3.87458603 -12.42903147 -0.08916577 0 0 Z " fill="#FFFFFF" transform="translate(499.25,544.5)"/>
<path d="M0 0 C1.32837891 -0.0299707 1.32837891 -0.0299707 2.68359375 -0.06054688 C3.56144531 -0.05990234 4.43929687 -0.05925781 5.34375 -0.05859375 C6.50680664 -0.06137329 6.50680664 -0.06137329 7.69335938 -0.06420898 C10.5 0.4375 10.5 0.4375 19.5 4.4375 C19.5 12.3575 19.5 20.2775 19.5 28.4375 C13.5 26.4375 13.5 26.4375 11.40234375 25.734375 C1.44389762 22.96264049 -9.52729185 25.66701016 -18.5 30.4375 C-27.35134497 35.82589994 -32.81125632 43.4213242 -35.5 53.4375 C-36.78676179 64.19696206 -35.9226331 73.89907335 -30.5 83.4375 C-30.12746094 84.12199219 -29.75492187 84.80648437 -29.37109375 85.51171875 C-24.88502715 92.71756092 -17.97563349 96.28400876 -9.9375 98.3125 C-7.2459375 98.869375 -7.2459375 98.869375 -4.5 99.4375 C-4.5 93.1675 -4.5 86.8975 -4.5 80.4375 C-8.13 80.4375 -11.76 80.4375 -15.5 80.4375 C-15.5 73.5075 -15.5 66.5775 -15.5 59.4375 C-3.95 59.4375 7.6 59.4375 19.5 59.4375 C19.5 80.5575 19.5 101.6775 19.5 123.4375 C-17.36234818 123.4375 -17.36234818 123.4375 -28.5 116.4375 C-29.92699219 115.66792969 -29.92699219 115.66792969 -31.3828125 114.8828125 C-45.21702583 107.24302305 -54.81253412 94.98984066 -59.6171875 79.9375 C-60.96923247 74.2089049 -60.82922952 68.41783343 -60.8125 62.5625 C-60.82861328 61.44230469 -60.84472656 60.32210937 -60.86132812 59.16796875 C-60.87122543 42.20399024 -53.98453781 30.41347623 -42.5 18.4375 C-30.70098328 7.14271476 -16.44087078 -0.13162269 0 0 Z " fill="#FFFFFF" transform="translate(334.5,544.5625)"/>
<path d="M0 0 C1.32114304 0.0001133 1.32114304 0.0001133 2.66897583 0.00022888 C3.62109955 0.00539017 4.57322327 0.01055145 5.55419922 0.01586914 C7.01489334 0.01799156 7.01489334 0.01799156 8.50509644 0.02015686 C11.62305745 0.02576566 14.74094732 0.03831966 17.85888672 0.05102539 C19.96956277 0.05603926 22.08023994 0.06060236 24.19091797 0.06469727 C29.37195719 0.07488814 34.55284207 0.09446186 39.73388672 0.11352539 C39.73388672 7.70352539 39.73388672 15.29352539 39.73388672 23.11352539 C37.50509766 23.16250977 35.27630859 23.21149414 32.97998047 23.26196289 C30.80210116 23.31609778 28.62432457 23.37335583 26.4465332 23.4309082 C24.94238049 23.46900028 23.4381428 23.50388631 21.93383789 23.53540039 C19.76141148 23.58148434 17.58956017 23.63940193 15.41748047 23.69946289 C13.46152954 23.74659424 13.46152954 23.74659424 11.46606445 23.79467773 C7.58978995 24.12583588 4.37013513 24.72567813 0.73388672 26.11352539 C-4.32885526 32.08430808 -4.32885526 32.08430808 -3.26611328 51.11352539 C10.92388672 51.11352539 25.11388672 51.11352539 39.73388672 51.11352539 C39.73388672 58.37352539 39.73388672 65.63352539 39.73388672 73.11352539 C25.54388672 73.11352539 11.35388672 73.11352539 -3.26611328 73.11352539 C-4.56722828 91.93059927 -4.56722828 91.93059927 2.73388672 98.11352539 C4.69992498 98.84824277 4.69992498 98.84824277 6.69799805 98.77294922 C7.8085833 98.80241386 7.8085833 98.80241386 8.94160461 98.83247375 C10.11688972 98.82657478 10.11688972 98.82657478 11.31591797 98.82055664 C12.53718636 98.8432386 12.53718636 98.8432386 13.78312683 98.86637878 C16.37116307 98.90919976 18.95803177 98.91808786 21.54638672 98.92602539 C23.30618326 98.94917422 25.06595213 98.97454037 26.82568359 99.00219727 C31.12905076 99.06915206 35.42918144 99.09016488 39.73388672 99.11352539 C39.73388672 107.03352539 39.73388672 114.95352539 39.73388672 123.11352539 C34.07665856 123.22892669 28.423585 123.32827306 22.76611328 123.38818359 C20.84572439 123.41318026 18.92542921 123.44718951 17.00537109 123.49072266 C-3.52110489 123.94414014 -3.52110489 123.94414014 -11.26611328 118.11352539 C-12.00893555 117.55882568 -12.75175781 117.00412598 -13.51708984 116.43261719 C-19.86709909 111.44830973 -24.69076031 104.77655906 -27.26611328 97.11352539 C-27.53353882 93.8394165 -27.53353882 93.8394165 -27.55664062 90.0793457 C-27.56335785 89.39081512 -27.57007507 88.70228455 -27.57699585 87.9928894 C-27.59592956 85.72573545 -27.59989804 83.45887841 -27.60205078 81.19165039 C-27.60848332 79.60609824 -27.61521202 78.02054726 -27.6222229 76.43499756 C-27.63418509 73.11296846 -27.63790496 69.79104325 -27.63671875 66.46899414 C-27.63651594 62.23123513 -27.66378314 57.99414958 -27.69826317 53.75654984 C-27.72060605 50.48094684 -27.724554 47.20550382 -27.7234993 43.92983246 C-27.72584549 42.36865678 -27.73461324 40.80747603 -27.75016403 39.24637604 C-27.86990385 25.98120746 -25.82595249 18.10109004 -16.65283203 8.35180664 C-11.92423358 3.9172945 -6.61389253 -0.01889684 0 0 Z " fill="#FFFFFF" transform="translate(678.26611328125,544.886474609375)"/>
<path d="M0 0 C24.42 0 48.84 0 74 0 C74 7.26 74 14.52 74 22 C65.75 22 57.5 22 49 22 C49 55.33 49 88.66 49 123 C40.75 123 32.5 123 24 123 C24 90 24 57 24 23 C16.08 22.67 8.16 22.34 0 22 C0 14.74 0 7.48 0 0 Z " fill="#FFFFFF" transform="translate(731,545)"/>
<path d="M0 0 C1.8125 1.1875 1.8125 1.1875 3 3 C3.5 5.5 3.5 5.5 3 8 C0.8125 9.9375 0.8125 9.9375 -2 11 C-4.75 10.5625 -4.75 10.5625 -7 9 C-8 6.0625 -8 6.0625 -8 3 C-5.99043689 -0.34927185 -3.71527724 -0.55729159 0 0 Z " fill="#FFFFFF" transform="translate(650,485)"/>
</svg>
